<svg width="143" height="149" viewBox="0 0 143 149" fill="none" xmlns="http://www.w3.org/2000/svg">
<g filter="url(#filter0_d)">
<rect x="17" y="12.0001" width="109" height="115" rx="25" fill="#FA5151"/>
</g>
<path d="M78 38.9998C84.3333 38.9998 89.8333 40.0665 94.5 42.1998C99.1667 44.2665 102.767 47.2665 105.3 51.1998C107.833 55.0665 109.1 59.6331 109.1 64.8998C109.1 70.1665 107.833 74.7331 105.3 78.5998C102.767 82.4665 99.1667 85.4665 94.5 87.5998C89.8333 89.6665 84.3333 90.6998 78 90.6998H65.8V109H46V38.9998H78ZM76.8 75.0998C80.8667 75.0998 83.9333 74.2331 86 72.4998C88.0667 70.6998 89.1 68.1665 89.1 64.8998C89.1 61.6331 88.0667 59.0998 86 57.2998C83.9333 55.4998 80.8667 54.5998 76.8 54.5998H65.8V75.0998H76.8Z" fill="black"/>
<g filter="url(#filter1_d)">
<path d="M76 127L106 127C117.046 127 126 118.046 126 107L126 77" stroke="black" stroke-width="20"/>
</g>
<g filter="url(#filter2_d)">
<path d="M67 12H37C25.9543 12 17 20.9543 17 32V62" stroke="black" stroke-width="20"/>
</g>
<defs>
<filter id="filter0_d" x="13" y="12.0001" width="117" height="123" filterUnits="userSpaceOnUse" color-interpolation-filters="sRGB">
<feFlood flood-opacity="0" result="BackgroundImageFix"/>
<feColorMatrix in="SourceAlpha" type="matrix" values="0 0 0 0 0 0 0 0 0 0 0 0 0 0 0 0 0 0 127 0" result="hardAlpha"/>
<feOffset dy="4"/>
<feGaussianBlur stdDeviation="2"/>
<feComposite in2="hardAlpha" operator="out"/>
<feColorMatrix type="matrix" values="0 0 0 0 0 0 0 0 0 0 0 0 0 0 0 0 0 0 0.25 0"/>
<feBlend mode="normal" in2="BackgroundImageFix" result="effect1_dropShadow"/>
<feBlend mode="normal" in="SourceGraphic" in2="effect1_dropShadow" result="shape"/>
</filter>
<filter id="filter1_d" x="69" y="75" width="74" height="74" filterUnits="userSpaceOnUse" color-interpolation-filters="sRGB">
<feFlood flood-opacity="0" result="BackgroundImageFix"/>
<feColorMatrix in="SourceAlpha" type="matrix" values="0 0 0 0 0 0 0 0 0 0 0 0 0 0 0 0 0 0 127 0" result="hardAlpha"/>
<feOffset dy="5"/>
<feGaussianBlur stdDeviation="3.5"/>
<feComposite in2="hardAlpha" operator="out"/>
<feColorMatrix type="matrix" values="0 0 0 0 0 0 0 0 0 0 0 0 0 0 0 0 0 0 0.5 0"/>
<feBlend mode="normal" in2="BackgroundImageFix" result="effect1_dropShadow"/>
<feBlend mode="normal" in="SourceGraphic" in2="effect1_dropShadow" result="shape"/>
</filter>
<filter id="filter2_d" x="0" y="0" width="74" height="74" filterUnits="userSpaceOnUse" color-interpolation-filters="sRGB">
<feFlood flood-opacity="0" result="BackgroundImageFix"/>
<feColorMatrix in="SourceAlpha" type="matrix" values="0 0 0 0 0 0 0 0 0 0 0 0 0 0 0 0 0 0 127 0" result="hardAlpha"/>
<feOffset dy="5"/>
<feGaussianBlur stdDeviation="3.5"/>
<feComposite in2="hardAlpha" operator="out"/>
<feColorMatrix type="matrix" values="0 0 0 0 0 0 0 0 0 0 0 0 0 0 0 0 0 0 0.25 0"/>
<feBlend mode="normal" in2="BackgroundImageFix" result="effect1_dropShadow"/>
<feBlend mode="normal" in="SourceGraphic" in2="effect1_dropShadow" result="shape"/>
</filter>
</defs>
</svg>
