<svg width="545" height="274" viewBox="0 0 545 274" fill="none" xmlns="http://www.w3.org/2000/svg">
<g filter="url(#filter0_d)">
<path d="M84.85 42.5C92.1333 42.5 98.4583 43.7267 103.825 46.18C109.192 48.5567 113.332 52.0067 116.245 56.53C119.158 60.9767 120.615 66.2283 120.615 72.285C120.615 78.3417 119.158 83.5933 116.245 88.04C113.332 92.4867 109.192 95.9367 103.825 98.39C98.4583 100.767 92.1333 101.955 84.85 101.955H70.82V123H48.05V42.5H84.85ZM83.47 84.015C88.1467 84.015 91.6733 83.0183 94.05 81.025C96.4267 78.955 97.615 76.0417 97.615 72.285C97.615 68.5283 96.4267 65.615 94.05 63.545C91.6733 61.475 88.1467 60.44 83.47 60.44H70.82V84.015H83.47ZM207.157 42.5V123H184.387V91.605H153.337V123H130.567V42.5H153.337V72.745H184.387V42.5H207.157ZM262.663 124.61C254.153 124.61 246.487 122.808 239.663 119.205C232.917 115.602 227.588 110.618 223.678 104.255C219.845 97.8917 217.928 90.7233 217.928 82.75C217.928 74.7767 219.845 67.6083 223.678 61.245C227.588 54.8817 232.917 49.8983 239.663 46.295C246.487 42.6917 254.153 40.89 262.663 40.89C271.173 40.89 278.802 42.6917 285.548 46.295C292.372 49.8983 297.7 54.8817 301.533 61.245C305.443 67.6083 307.398 74.7767 307.398 82.75C307.398 90.7233 305.443 97.8917 301.533 104.255C297.7 110.618 292.372 115.602 285.548 119.205C278.802 122.808 271.173 124.61 262.663 124.61ZM262.663 105.75C266.727 105.75 270.407 104.792 273.703 102.875C277 100.958 279.607 98.275 281.523 94.825C283.44 91.2983 284.398 87.2733 284.398 82.75C284.398 78.2267 283.44 74.24 281.523 70.79C279.607 67.2633 277 64.5417 273.703 62.625C270.407 60.7083 266.727 59.75 262.663 59.75C258.6 59.75 254.92 60.7083 251.623 62.625C248.327 64.5417 245.72 67.2633 243.803 70.79C241.887 74.24 240.928 78.2267 240.928 82.75C240.928 87.2733 241.887 91.2983 243.803 94.825C245.72 98.275 248.327 100.958 251.623 102.875C254.92 104.792 258.6 105.75 262.663 105.75ZM334.186 60.555H309.461V42.5H381.566V60.555H356.956V123H334.186V60.555ZM428.371 124.61C419.861 124.61 412.194 122.808 405.371 119.205C398.624 115.602 393.296 110.618 389.386 104.255C385.553 97.8917 383.636 90.7233 383.636 82.75C383.636 74.7767 385.553 67.6083 389.386 61.245C393.296 54.8817 398.624 49.8983 405.371 46.295C412.194 42.6917 419.861 40.89 428.371 40.89C436.881 40.89 444.51 42.6917 451.256 46.295C458.08 49.8983 463.408 54.8817 467.241 61.245C471.151 67.6083 473.106 74.7767 473.106 82.75C473.106 90.7233 471.151 97.8917 467.241 104.255C463.408 110.618 458.08 115.602 451.256 119.205C444.51 122.808 436.881 124.61 428.371 124.61ZM428.371 105.75C432.435 105.75 436.115 104.792 439.411 102.875C442.708 100.958 445.315 98.275 447.231 94.825C449.148 91.2983 450.106 87.2733 450.106 82.75C450.106 78.2267 449.148 74.24 447.231 70.79C445.315 67.2633 442.708 64.5417 439.411 62.625C436.115 60.7083 432.435 59.75 428.371 59.75C424.308 59.75 420.628 60.7083 417.331 62.625C414.035 64.5417 411.428 67.2633 409.511 70.79C407.595 74.24 406.636 78.2267 406.636 82.75C406.636 87.2733 407.595 91.2983 409.511 94.825C411.428 98.275 414.035 100.958 417.331 102.875C420.628 104.792 424.308 105.75 428.371 105.75Z" fill="black"/>
</g>
<g filter="url(#filter1_d)">
<path d="M191.92 176.025C196.52 177.635 200.123 180.165 202.73 183.615C205.337 186.988 206.64 191.09 206.64 195.92C206.64 202.973 203.803 208.417 198.13 212.25C192.457 216.083 184.253 218 173.52 218H130.05V137.5H171.22C181.493 137.5 189.313 139.417 194.68 143.25C200.047 147.007 202.73 152.105 202.73 158.545C202.73 162.378 201.772 165.828 199.855 168.895C198.015 171.885 195.37 174.262 191.92 176.025ZM152.59 153.945V169.47H168.23C175.897 169.47 179.73 166.863 179.73 161.65C179.73 156.513 175.897 153.945 168.23 153.945H152.59ZM171.68 201.555C179.653 201.555 183.64 198.833 183.64 193.39C183.64 187.947 179.653 185.225 171.68 185.225H152.59V201.555H171.68ZM260.179 219.61C251.669 219.61 244.002 217.808 237.179 214.205C230.432 210.602 225.104 205.618 221.194 199.255C217.36 192.892 215.444 185.723 215.444 177.75C215.444 169.777 217.36 162.608 221.194 156.245C225.104 149.882 230.432 144.898 237.179 141.295C244.002 137.692 251.669 135.89 260.179 135.89C268.689 135.89 276.317 137.692 283.064 141.295C289.887 144.898 295.215 149.882 299.049 156.245C302.959 162.608 304.914 169.777 304.914 177.75C304.914 185.723 302.959 192.892 299.049 199.255C295.215 205.618 289.887 210.602 283.064 214.205C276.317 217.808 268.689 219.61 260.179 219.61ZM260.179 200.75C264.242 200.75 267.922 199.792 271.219 197.875C274.515 195.958 277.122 193.275 279.039 189.825C280.955 186.298 281.914 182.273 281.914 177.75C281.914 173.227 280.955 169.24 279.039 165.79C277.122 162.263 274.515 159.542 271.219 157.625C267.922 155.708 264.242 154.75 260.179 154.75C256.115 154.75 252.435 155.708 249.139 157.625C245.842 159.542 243.235 162.263 241.319 165.79C239.402 169.24 238.444 173.227 238.444 177.75C238.444 182.273 239.402 186.298 241.319 189.825C243.235 193.275 245.842 195.958 249.139 197.875C252.435 199.792 256.115 200.75 260.179 200.75ZM358.585 219.61C350.075 219.61 342.408 217.808 335.585 214.205C328.838 210.602 323.51 205.618 319.6 199.255C315.766 192.892 313.85 185.723 313.85 177.75C313.85 169.777 315.766 162.608 319.6 156.245C323.51 149.882 328.838 144.898 335.585 141.295C342.408 137.692 350.075 135.89 358.585 135.89C367.095 135.89 374.723 137.692 381.47 141.295C388.293 144.898 393.621 149.882 397.455 156.245C401.365 162.608 403.32 169.777 403.32 177.75C403.32 185.723 401.365 192.892 397.455 199.255C393.621 205.618 388.293 210.602 381.47 214.205C374.723 217.808 367.095 219.61 358.585 219.61ZM358.585 200.75C362.648 200.75 366.328 199.792 369.625 197.875C372.921 195.958 375.528 193.275 377.445 189.825C379.361 186.298 380.32 182.273 380.32 177.75C380.32 173.227 379.361 169.24 377.445 165.79C375.528 162.263 372.921 159.542 369.625 157.625C366.328 155.708 362.648 154.75 358.585 154.75C354.521 154.75 350.841 155.708 347.545 157.625C344.248 159.542 341.641 162.263 339.725 165.79C337.808 169.24 336.85 173.227 336.85 177.75C336.85 182.273 337.808 186.298 339.725 189.825C341.641 193.275 344.248 195.958 347.545 197.875C350.841 199.792 354.521 200.75 358.585 200.75ZM447.446 188.79L438.936 197.875V218H416.396V137.5H438.936V170.965L470.101 137.5H495.171L462.281 173.15L496.896 218H470.446L447.446 188.79Z" fill="#FA5151"/>
</g>
<g filter="url(#filter2_d)">
<path d="M103 12H67C39.3858 12 17 34.3858 17 62V94" stroke="black" stroke-width="20"/>
</g>
<g filter="url(#filter3_d)">
<path d="M448.613 251.55L477.342 251.315C504.955 251.089 527.157 228.521 526.931 200.907L526.728 176" stroke="black" stroke-width="20"/>
</g>
<defs>
<filter id="filter0_d" x="41.05" y="38.89" width="439.056" height="97.72" filterUnits="userSpaceOnUse" color-interpolation-filters="sRGB">
<feFlood flood-opacity="0" result="BackgroundImageFix"/>
<feColorMatrix in="SourceAlpha" type="matrix" values="0 0 0 0 0 0 0 0 0 0 0 0 0 0 0 0 0 0 127 0" result="hardAlpha"/>
<feOffset dy="5"/>
<feGaussianBlur stdDeviation="3.5"/>
<feComposite in2="hardAlpha" operator="out"/>
<feColorMatrix type="matrix" values="0 0 0 0 0 0 0 0 0 0 0 0 0 0 0 0 0 0 0.25 0"/>
<feBlend mode="normal" in2="BackgroundImageFix" result="effect1_dropShadow"/>
<feBlend mode="normal" in="SourceGraphic" in2="effect1_dropShadow" result="shape"/>
</filter>
<filter id="filter1_d" x="123.05" y="133.89" width="380.846" height="97.72" filterUnits="userSpaceOnUse" color-interpolation-filters="sRGB">
<feFlood flood-opacity="0" result="BackgroundImageFix"/>
<feColorMatrix in="SourceAlpha" type="matrix" values="0 0 0 0 0 0 0 0 0 0 0 0 0 0 0 0 0 0 127 0" result="hardAlpha"/>
<feOffset dy="5"/>
<feGaussianBlur stdDeviation="3.5"/>
<feComposite in2="hardAlpha" operator="out"/>
<feColorMatrix type="matrix" values="0 0 0 0 0 0 0 0 0 0 0 0 0 0 0 0 0 0 0.25 0"/>
<feBlend mode="normal" in2="BackgroundImageFix" result="effect1_dropShadow"/>
<feBlend mode="normal" in="SourceGraphic" in2="effect1_dropShadow" result="shape"/>
</filter>
<filter id="filter2_d" x="0" y="0" width="110" height="106" filterUnits="userSpaceOnUse" color-interpolation-filters="sRGB">
<feFlood flood-opacity="0" result="BackgroundImageFix"/>
<feColorMatrix in="SourceAlpha" type="matrix" values="0 0 0 0 0 0 0 0 0 0 0 0 0 0 0 0 0 0 127 0" result="hardAlpha"/>
<feOffset dy="5"/>
<feGaussianBlur stdDeviation="3.5"/>
<feComposite in2="hardAlpha" operator="out"/>
<feColorMatrix type="matrix" values="0 0 0 0 0 0 0 0 0 0 0 0 0 0 0 0 0 0 0.25 0"/>
<feBlend mode="normal" in2="BackgroundImageFix" result="effect1_dropShadow"/>
<feBlend mode="normal" in="SourceGraphic" in2="effect1_dropShadow" result="shape"/>
</filter>
<filter id="filter3_d" x="441" y="173.918" width="103.422" height="99.6315" filterUnits="userSpaceOnUse" color-interpolation-filters="sRGB">
<feFlood flood-opacity="0" result="BackgroundImageFix"/>
<feColorMatrix in="SourceAlpha" type="matrix" values="0 0 0 0 0 0 0 0 0 0 0 0 0 0 0 0 0 0 127 0" result="hardAlpha"/>
<feOffset dy="5"/>
<feGaussianBlur stdDeviation="3.5"/>
<feComposite in2="hardAlpha" operator="out"/>
<feColorMatrix type="matrix" values="0 0 0 0 0 0 0 0 0 0 0 0 0 0 0 0 0 0 0.5 0"/>
<feBlend mode="normal" in2="BackgroundImageFix" result="effect1_dropShadow"/>
<feBlend mode="normal" in="SourceGraphic" in2="effect1_dropShadow" result="shape"/>
</filter>
</defs>
</svg>
